<mxfile host="app.diagrams.net" modified="2021-11-06T12:25:22.270Z" agent="5.0 (Windows NT 10.0; Win64; x64) AppleWebKit/537.36 (KHTML, like Gecko) Chrome/95.0.4638.69 Safari/537.36" etag="tq1nHGO_oJsa2t5h1uJc" version="15.7.0" type="github">
  <diagram id="jnxX1dpqBWMMVxXvKskB" name="Page-1">
    <mxGraphModel dx="1122" dy="670" grid="1" gridSize="10" guides="1" tooltips="1" connect="1" arrows="1" fold="1" page="1" pageScale="1" pageWidth="827" pageHeight="1169" math="0" shadow="0">
      <root>
        <mxCell id="0" />
        <mxCell id="1" parent="0" />
        <mxCell id="KNvALWube3b4RD5xJjOB-11" value="" style="shape=doubleArrow;whiteSpace=wrap;html=1;fontFamily=Georgia;fontSize=14;fontColor=#000000;" vertex="1" parent="1">
          <mxGeometry x="350" y="420" width="200" height="20" as="geometry" />
        </mxCell>
        <mxCell id="KNvALWube3b4RD5xJjOB-15" value="configuration.yaml" style="shape=note;size=20;whiteSpace=wrap;html=1;fontFamily=Georgia;fontSize=14;fontColor=#000000;" vertex="1" parent="1">
          <mxGeometry x="540" y="210" width="140" height="80" as="geometry" />
        </mxCell>
        <mxCell id="KNvALWube3b4RD5xJjOB-16" value="" style="html=1;shadow=0;dashed=0;align=center;verticalAlign=middle;shape=mxgraph.arrows2.arrow;dy=0.6;dx=40;direction=south;notch=0;fontFamily=Georgia;fontSize=14;fontColor=#000000;" vertex="1" parent="1">
          <mxGeometry x="600" y="290" width="20" height="100" as="geometry" />
        </mxCell>
        <mxCell id="KNvALWube3b4RD5xJjOB-19" value="&lt;span style=&quot;font-weight: normal&quot;&gt;mlagents-learn&lt;/span&gt;" style="label;whiteSpace=wrap;html=1;align=center;verticalAlign=bottom;spacingLeft=0;spacingBottom=4;imageAlign=center;imageVerticalAlign=top;image=img/clipart/Gear_128x128.png;fontFamily=Georgia;fontSize=14;fontColor=#000000;" vertex="1" parent="1">
          <mxGeometry x="550" y="390" width="140" height="90" as="geometry" />
        </mxCell>
        <mxCell id="KNvALWube3b4RD5xJjOB-5" value="&lt;font style=&quot;font-size: 16px&quot;&gt;Unity&lt;/font&gt;" style="shape=ext;double=1;rounded=1;whiteSpace=wrap;html=1;" vertex="1" parent="1">
          <mxGeometry x="70" y="540" width="270" height="160" as="geometry" />
        </mxCell>
        <mxCell id="KNvALWube3b4RD5xJjOB-18" value="MLAgents Toolkit" style="shape=ext;double=1;rounded=1;whiteSpace=wrap;html=1;fontFamily=Georgia;fontSize=14;fontColor=#000000;" vertex="1" parent="1">
          <mxGeometry x="510" y="610" width="350" height="80" as="geometry" />
        </mxCell>
        <mxCell id="KNvALWube3b4RD5xJjOB-20" value="paquet&amp;nbsp;&lt;br&gt;com.unity.ml-agent" style="shape=ext;double=1;rounded=1;whiteSpace=wrap;html=1;fontFamily=Georgia;fontSize=14;fontColor=#000000;" vertex="1" parent="1">
          <mxGeometry x="240" y="540" width="100" height="160" as="geometry" />
        </mxCell>
        <mxCell id="KNvALWube3b4RD5xJjOB-9" value="NPC agent model" style="ellipse;shape=doubleEllipse;whiteSpace=wrap;html=1;fontFamily=Georgia;fontSize=14;fontColor=#000000;" vertex="1" parent="1">
          <mxGeometry x="80" y="650" width="210" height="40" as="geometry" />
        </mxCell>
      </root>
    </mxGraphModel>
  </diagram>
</mxfile>
